<svg version="1.1" id="Layer_1" xmlns="http://www.w3.org/2000/svg" xmlns:xlink="http://www.w3.org/1999/xlink" x="0px" y="0px"
	 width="100%" viewBox="0 0 237 204" enable-background="new 0 0 237 204" xml:space="preserve">
<path fill="#FEFEFE" opacity="1.000000" stroke="none" 
	d="
M113.000000,205.000000 
	C75.333336,205.000000 38.166672,205.000000 1.000005,205.000000 
	C1.000003,137.000000 1.000003,69.000015 1.000002,1.000014 
	C79.999992,1.000009 158.999985,1.000009 237.999969,1.000005 
	C237.999985,68.999985 237.999985,136.999969 238.000000,204.999969 
	C196.500000,205.000000 155.000000,205.000000 113.000000,205.000000 
M147.995331,71.215668 
	C147.216782,70.888565 146.438248,70.561462 145.294678,70.190437 
	C145.294678,70.190437 145.022018,69.943817 144.900665,69.230667 
	C144.090103,68.967377 143.279526,68.704086 141.943985,68.391525 
	C141.647476,68.211227 141.350952,68.030930 141.002930,67.195160 
	C139.343063,66.747292 137.683182,66.299423 135.366913,65.814415 
	C134.962799,65.651413 134.558670,65.488411 133.867630,64.737328 
	C131.580124,64.478531 129.292618,64.219734 126.086876,64.053940 
	C122.391037,64.034721 118.695198,64.015503 114.498306,63.484955 
	C110.977592,64.594383 107.456886,65.703819 103.455940,67.070023 
	C103.102295,67.143570 102.748657,67.217117 101.667221,67.087486 
	C99.761574,68.348259 97.855927,69.609032 95.717461,71.171394 
	C95.717461,71.171394 95.343086,71.242126 94.653954,71.088066 
	C94.100929,71.721352 93.547913,72.354637 92.509903,73.523582 
	C92.102943,75.001282 91.695992,76.478981 90.487610,77.942986 
	C89.961372,78.034950 89.435127,78.126915 88.643684,77.677261 
	C88.139290,77.434395 87.634903,77.191536 86.636223,76.611137 
	C86.040108,75.818459 85.443993,75.025772 84.899261,73.494194 
	C83.812263,72.744995 82.725273,71.995789 81.141998,71.074814 
	C80.760353,70.718323 80.378708,70.361824 79.881203,69.282135 
	C79.065086,69.020828 78.248978,68.759521 76.917412,68.399734 
	C76.634499,68.200752 76.351593,68.001770 76.002975,67.158379 
	C74.349754,66.679680 72.696526,66.200974 70.383759,65.710770 
	C69.975754,65.554260 69.567749,65.397758 68.869644,64.659920 
	C66.581604,64.425880 64.293564,64.191849 61.069866,64.030792 
	C47.000790,64.030792 32.931713,64.030792 18.538887,64.030792 
	C18.538887,90.180016 18.538887,115.635696 18.155575,141.411041 
	C18.767279,141.630402 19.378984,141.849747 20.924881,141.973953 
	C28.603544,141.974670 36.282207,141.975388 44.811829,142.012894 
	C45.228592,140.869720 45.984680,139.732239 46.003925,138.582413 
	C46.091633,133.343170 45.972206,128.100449 46.713020,122.455132 
	C50.146385,122.086609 53.297020,122.279366 54.216587,127.077744 
	C55.111835,128.061401 56.007084,129.045059 57.223190,130.201553 
	C57.223190,130.201553 57.267246,130.563324 57.086586,131.312439 
	C58.125160,132.514847 59.163734,133.717270 60.455540,135.073547 
	C60.455540,135.073547 60.486584,135.368225 60.227108,136.094467 
	C61.639984,138.578369 61.791618,142.274124 66.918365,141.977890 
	C75.280090,141.989960 83.641823,142.002045 92.388168,142.479340 
	C92.864319,141.902664 93.846634,140.948746 93.740356,140.806137 
	C92.249001,138.805099 90.609238,136.914658 88.568344,134.678711 
	C88.324608,134.211655 88.080872,133.744598 88.058746,132.475815 
	C88.407890,131.434631 88.757042,130.393433 89.691544,129.686340 
	C90.799767,130.774887 91.907997,131.863449 93.074471,133.685272 
	C93.871284,134.028748 94.668106,134.372223 95.811249,134.736374 
	C95.811249,134.736374 95.989540,135.033981 96.034126,135.731750 
	C99.674828,137.229019 103.315529,138.726288 107.632469,140.216064 
	C108.048813,140.378220 108.465149,140.540390 109.153938,141.295990 
	C111.435226,141.534729 113.716507,141.773468 116.893555,141.900681 
	C119.599472,141.951828 122.305389,142.002975 125.544472,142.601395 
	C132.738419,142.490479 139.587906,141.364120 145.471786,135.514847 
	C147.891205,133.599625 150.310623,131.684387 153.455124,130.130478 
	C154.192932,130.443405 154.930725,130.756317 155.314163,131.632874 
	C154.826889,132.063492 154.339630,132.494125 153.159210,132.957489 
	C153.020462,133.921677 152.613632,135.677704 152.781998,135.734726 
	C157.475800,137.323868 162.227859,138.740860 167.707870,140.176392 
	C168.419296,140.356064 169.130737,140.535736 170.169128,141.302109 
	C173.112122,141.539505 176.055115,141.776917 179.903625,141.927872 
	C182.937637,141.963272 185.971634,141.998672 189.542557,142.543076 
	C192.414932,141.918076 195.287292,141.293076 198.747208,140.379532 
	C199.177216,140.322281 199.607208,140.265030 200.425583,140.696594 
	C201.977219,139.874619 203.528839,139.052643 205.471634,137.866470 
	C205.808945,137.762878 206.146271,137.659286 207.162689,137.812744 
	C207.783020,137.223251 208.403366,136.633759 209.384750,135.649841 
	C209.834076,135.372940 210.283417,135.096054 211.424438,134.918549 
	C211.939606,134.257858 212.454758,133.597183 213.198135,132.535614 
	C213.364227,132.262527 213.595230,132.065582 214.600281,131.925888 
	C214.993195,131.174866 215.386108,130.423843 215.901703,129.300049 
	C215.901703,129.300049 216.226730,129.080078 216.892685,128.995346 
	C217.679733,126.676804 218.466797,124.358269 219.240997,121.304688 
	C219.395142,120.587982 219.549271,119.871269 220.217621,118.892746 
	C220.050491,117.541977 219.883362,116.191208 219.500580,114.086502 
	C219.389389,113.047745 219.278214,112.008987 219.672256,110.586205 
	C218.539948,108.691956 217.407639,106.797707 215.933655,104.687424 
	C215.933655,104.687424 215.787323,104.310562 215.884109,103.566109 
	C214.806091,102.791679 213.728073,102.017258 212.166183,101.040665 
	C211.781067,100.685005 211.395950,100.329346 210.895584,99.254379 
	C210.082718,98.990372 209.269852,98.726357 207.935150,98.397614 
	C207.642960,98.211662 207.350784,98.025719 207.002609,97.186913 
	C205.343140,96.739754 203.683670,96.292595 201.367294,95.817024 
	C200.963394,95.654472 200.559509,95.491913 199.866730,94.721725 
	C196.254898,94.082893 192.643051,93.444061 188.292252,92.814217 
	C187.580612,92.629349 186.868988,92.444481 185.920609,91.731697 
	C184.612045,91.499290 183.303467,91.266884 181.397278,91.007668 
	C180.935745,90.664612 180.474197,90.321556 180.063538,89.173424 
	C180.065048,87.838280 180.066544,86.503136 180.318420,84.871521 
	C180.318420,84.871521 180.697968,84.790634 181.390747,84.945755 
	C181.937637,84.557083 182.484543,84.168411 183.803802,83.537994 
	C187.150284,83.614998 190.496780,83.692009 194.183502,84.338776 
	C197.290421,85.087196 200.397354,85.835617 204.036362,86.595619 
	C204.347687,86.755699 204.659012,86.915787 205.017471,87.727608 
	C207.741287,90.073051 207.751282,90.073708 209.000000,88.000000 
	C209.000000,88.000000 208.990158,87.992691 209.728012,87.969345 
	C210.382629,86.173149 211.037247,84.376953 211.754700,82.045761 
	C211.899155,81.718796 212.043625,81.391838 212.870377,80.934761 
	C214.100357,78.440887 215.596695,76.033730 216.448730,73.416801 
	C216.879288,72.094398 216.586731,69.347420 215.860687,69.039886 
	C212.401215,67.574585 208.680649,66.725716 204.396210,65.671593 
	C203.984375,65.531250 203.572556,65.390900 202.842377,64.669823 
	C200.230103,64.432083 197.617813,64.194344 194.080841,64.033516 
	C190.051514,64.007980 186.022186,63.982441 181.462921,63.444874 
	C177.619232,64.563667 173.775528,65.682465 169.449493,67.059502 
	C169.094193,67.133987 168.738907,67.208481 167.677475,67.080612 
	C166.430832,67.997231 165.184189,68.913857 163.447296,70.284760 
	C161.542725,72.176872 159.638153,74.068985 157.114792,76.029900 
	C156.356598,76.717361 155.598389,77.404831 154.393555,77.947388 
	C154.116486,77.764153 153.946060,77.509529 153.948563,76.468254 
	C152.906570,75.701683 151.864594,74.935112 150.990067,74.001274 
	C150.990067,74.001274 150.834030,74.178902 150.875931,73.480301 
	C149.948578,72.964500 149.021225,72.448708 148.017029,71.992577 
	C148.017029,71.992577 148.060516,71.905556 147.995331,71.215668 
z"/>
<path fill="#060606" opacity="1.000000" stroke="none" 
	d="
M18.538887,141.091385 
	C18.538887,115.635696 18.538887,90.180016 18.538887,64.030792 
	C32.931713,64.030792 47.000790,64.030792 61.846878,64.182053 
	C64.802505,64.635971 66.981125,64.938614 69.159744,65.241257 
	C69.567749,65.397758 69.975754,65.554260 70.891907,66.020126 
	C72.956261,66.820580 74.512466,67.311684 76.068680,67.802788 
	C76.351593,68.001770 76.634499,68.200752 77.312836,68.740326 
	C78.471191,69.389061 79.234131,69.697197 79.997063,70.005333 
	C80.378708,70.361824 80.760353,70.718323 81.471313,71.477959 
	C82.816376,72.665100 83.832123,73.449097 84.847878,74.233093 
	C85.443993,75.025772 86.040108,75.818459 86.865341,77.110367 
	C87.606400,78.302567 88.118332,78.995529 88.669609,80.017456 
	C89.439438,82.220413 90.169922,84.094398 90.787460,86.197830 
	C90.986916,87.198616 91.299324,87.969948 91.532730,89.136261 
	C92.367783,101.817703 88.007324,111.554604 76.736954,118.125450 
	C80.684914,123.514526 84.261024,128.396042 87.837143,133.277542 
	C88.080872,133.744598 88.324608,134.211655 88.786926,135.194290 
	C90.004860,137.811279 91.004204,139.912704 92.003548,142.014114 
	C83.641823,142.002045 75.280090,141.989960 66.198029,141.809540 
	C63.813984,139.550201 62.150284,137.459213 60.486584,135.368225 
	C60.486584,135.368225 60.455540,135.073547 60.327919,134.652222 
	C59.222618,133.008377 58.244930,131.785843 57.267242,130.563324 
	C57.267246,130.563324 57.223190,130.201553 57.048767,129.788605 
	C56.077671,128.373672 55.280994,127.371712 54.484314,126.369743 
	C53.297020,122.279366 50.146385,122.086609 45.938412,122.745514 
	C45.001797,124.800407 44.791222,126.562057 44.687275,128.329987 
	C44.419933,132.877197 44.199844,137.427200 43.960873,141.976089 
	C36.282207,141.975388 28.603544,141.974670 20.232971,141.829819 
	C19.207003,141.487579 18.872946,141.289490 18.538887,141.091385 
M54.138947,102.667664 
	C56.086700,102.291824 58.589725,102.536644 59.858337,101.401688 
	C62.022297,99.465698 64.661400,96.727585 64.790489,94.208054 
	C64.932632,91.433517 63.102833,86.801033 61.009693,86.031723 
	C56.542454,84.389816 51.311779,84.274841 46.494331,84.692566 
	C45.716606,84.760002 45.455063,90.792511 44.959709,94.068382 
	C44.935127,94.230942 44.955338,94.400482 44.956715,94.566757 
	C45.037636,104.333977 44.148945,102.490417 54.138947,102.667664 
z"/>
<path fill="#080808" opacity="1.000000" stroke="none" 
	d="
M134.154556,65.325409 
	C134.558670,65.488411 134.962799,65.651413 135.865845,66.140762 
	C137.927994,66.928291 139.491226,67.389458 141.054443,67.850632 
	C141.350952,68.030930 141.647476,68.211227 142.344955,68.709053 
	C143.504623,69.332321 144.263321,69.638069 145.022018,69.943817 
	C145.022018,69.943817 145.294678,70.190437 145.565674,70.521057 
	C146.577957,71.202980 147.319244,71.554268 148.060516,71.905556 
	C148.060516,71.905556 148.017029,71.992577 148.113739,72.274338 
	C149.084976,73.097038 149.959503,73.637970 150.834030,74.178909 
	C150.834030,74.178902 150.990067,74.001274 150.970642,74.399933 
	C151.928253,75.593559 152.905273,76.388542 153.882294,77.183525 
	C153.946060,77.509529 154.116486,77.764153 154.648483,78.366302 
	C156.486618,81.035622 158.069839,83.286018 159.635590,85.888336 
	C160.700027,91.135437 162.180267,95.982323 162.780746,100.935867 
	C164.021225,111.168900 160.331650,120.101402 154.267975,128.291260 
	C153.579178,128.771454 153.154602,129.270294 152.730026,129.769150 
	C150.310623,131.684387 147.891205,133.599625 144.862213,135.735062 
	C137.838867,137.988220 131.425095,140.021179 125.011307,142.054138 
	C122.305389,142.002975 119.599472,141.951828 116.144653,141.757812 
	C113.224327,141.310791 111.052910,141.006668 108.881493,140.702545 
	C108.465149,140.540390 108.048813,140.378220 107.111214,139.912292 
	C103.056488,138.083679 99.523018,136.558823 95.989540,135.033981 
	C95.989540,135.033981 95.811249,134.736374 95.509392,134.429108 
	C94.477097,133.731903 93.746658,133.341949 93.016220,132.951996 
	C91.907997,131.863449 90.799767,130.774887 89.364716,129.202042 
	C88.029305,127.420067 87.067001,126.083031 86.003212,124.832314 
	C83.147949,121.475372 83.115211,119.039352 86.640335,115.480881 
	C89.914818,112.175415 91.494553,107.191093 94.043320,102.765945 
	C94.308548,102.042778 94.350937,101.499603 94.591476,100.530472 
	C94.672348,95.416618 94.555077,90.728729 94.525421,85.770180 
	C94.352867,85.018211 94.092697,84.536911 93.851906,83.708252 
	C93.010529,81.559486 92.149780,79.758080 91.289032,77.956673 
	C91.695992,76.478981 92.102943,75.001282 93.070686,73.265434 
	C94.202011,72.418900 94.772545,71.830513 95.343079,71.242126 
	C95.343086,71.242126 95.717461,71.171394 96.182938,71.013382 
	C98.563957,69.667130 100.479485,68.478897 102.395012,67.290665 
	C102.748657,67.217117 103.102295,67.143570 104.088676,67.002594 
	C108.147392,65.955536 111.573380,64.975906 114.999359,63.996277 
	C118.695198,64.015503 122.391037,64.034721 126.855301,64.195190 
	C129.800674,64.666092 131.977615,64.995750 134.154556,65.325409 
M130.195969,118.911270 
	C131.192749,118.035500 132.289948,117.250008 133.170822,116.270042 
	C142.328308,106.082390 137.653595,87.521492 125.281021,84.845879 
	C117.540466,83.171959 110.662704,86.100380 106.968773,92.642914 
	C102.844429,99.947769 103.929604,110.539810 109.408516,116.456444 
	C114.428268,121.877228 121.911942,122.936371 130.195969,118.911270 
z"/>
<path fill="#090909" opacity="1.000000" stroke="none" 
	d="
M153.852356,132.924744 
	C154.339630,132.494125 154.826889,132.063492 155.784653,131.296021 
	C156.904556,130.001724 157.553970,129.044266 158.474030,127.890594 
	C160.635315,124.609306 162.525970,121.524223 163.871643,119.328400 
	C171.994965,120.480728 179.571762,121.916267 187.210159,122.422356 
	C189.544434,122.577019 192.047882,120.178078 194.473846,118.948578 
	C192.326492,117.256325 190.416595,114.924622 187.977203,114.018837 
	C184.135300,112.592262 179.907913,112.240990 175.896027,111.227486 
	C166.989624,108.977493 167.002853,108.925125 166.840561,99.882271 
	C166.829529,99.079826 166.669281,98.537872 166.475815,97.575562 
	C166.071411,95.518196 165.700226,93.881187 165.478394,91.963089 
	C165.145050,91.059044 164.662369,90.436096 164.195587,89.449638 
	C163.474625,87.390724 162.737747,85.695312 162.041626,83.644936 
	C160.632797,80.847015 159.183197,78.404060 157.733597,75.961105 
	C159.638153,74.068985 161.542725,72.176872 164.029709,70.067261 
	C165.869278,68.994164 167.126450,68.138573 168.383606,67.282974 
	C168.738907,67.208481 169.094193,67.133987 170.086548,66.985725 
	C174.480026,65.926933 178.236435,64.941917 181.992859,63.956902 
	C186.022186,63.982441 190.051514,64.007980 194.865082,64.177521 
	C198.153122,64.631195 200.656921,64.940880 203.160721,65.250557 
	C203.572556,65.390900 203.984375,65.531250 204.948761,65.956207 
	C206.108627,66.469711 206.704269,66.738083 207.325027,66.921562 
	C216.331131,69.583511 216.322083,69.576912 212.895233,78.306236 
	C212.550995,79.183174 212.418716,80.143333 212.188080,81.064873 
	C212.043625,81.391838 211.899155,81.718796 211.407806,82.451752 
	C210.370667,84.569382 209.680405,86.281036 208.990158,87.992691 
	C208.990158,87.992691 209.000000,88.000000 208.649323,87.937393 
	C207.189224,87.608475 206.079773,87.342171 204.970337,87.075867 
	C204.659012,86.915787 204.347687,86.755699 203.554413,86.302124 
	C199.996063,85.262085 196.919662,84.515549 193.843262,83.769020 
	C190.496780,83.692009 187.150284,83.614998 183.213135,83.501595 
	C181.980972,83.907013 181.339462,84.348824 180.697968,84.790634 
	C180.697968,84.790634 180.318420,84.871521 179.864273,85.036606 
	C179.610977,86.793961 179.811829,88.386230 180.012665,89.978500 
	C180.474197,90.321556 180.935745,90.664612 181.889130,91.293480 
	C183.639771,91.806068 184.898560,92.032845 186.157349,92.259613 
	C186.868988,92.444481 187.580612,92.629349 188.892761,93.114349 
	C193.047379,94.052773 196.601501,94.691063 200.155609,95.329361 
	C200.559509,95.491913 200.963394,95.654472 201.865601,96.139481 
	C203.928818,96.921219 205.493698,97.380501 207.058594,97.839775 
	C207.350784,98.025719 207.642960,98.211662 208.330597,98.725159 
	C209.487640,99.359688 210.249237,99.666679 211.010834,99.973679 
	C211.395950,100.329346 211.781067,100.685005 212.502655,101.453125 
	C213.821838,102.680580 214.804581,103.495575 215.787323,104.310562 
	C215.787323,104.310562 215.933655,104.687424 216.098419,105.142761 
	C217.231140,107.388809 218.199097,109.179520 219.167038,110.970230 
	C219.278214,112.008987 219.389389,113.047745 219.430725,114.873077 
	C219.475037,116.824631 219.589218,117.989594 219.703400,119.154564 
	C219.549271,119.871269 219.395142,120.587982 218.960114,121.874863 
	C217.861725,124.656715 217.044220,126.868393 216.226730,129.080078 
	C216.226730,129.080078 215.901703,129.300049 215.530991,129.565674 
	C214.737228,130.535797 214.314178,131.240280 213.891129,131.944763 
	C213.595230,132.065582 213.364227,132.262527 212.769043,132.758331 
	C211.804214,133.593765 211.268478,134.206467 210.732758,134.819168 
	C210.283417,135.096054 209.834076,135.372940 208.886612,135.821793 
	C207.753510,136.514404 207.118546,137.035049 206.483582,137.555695 
	C206.146271,137.659286 205.808945,137.762878 204.920547,138.014023 
	C202.925385,138.843643 201.481308,139.525711 200.037216,140.207764 
	C199.607208,140.265030 199.177216,140.322281 198.070694,140.401947 
	C194.598007,140.960938 191.801819,141.497498 189.005646,142.034073 
	C185.971634,141.998672 182.937637,141.963272 179.128540,141.772217 
	C175.516373,141.316162 172.679260,141.015793 169.842163,140.715408 
	C169.130737,140.535736 168.419296,140.356064 167.133133,139.876328 
	C163.898544,138.726898 161.100937,138.156754 158.624695,136.935196 
	C156.814880,136.042374 155.427856,134.292542 153.852356,132.924744 
z"/>
<path fill="#CFCFCF" opacity="1.000000" stroke="none" 
	d="
M90.888321,77.949829 
	C92.149780,79.758080 93.010529,81.559486 93.655655,83.851944 
	C93.772621,84.908951 94.105209,85.474899 94.437805,86.040848 
	C94.555077,90.728729 94.672348,95.416618 94.354820,100.589470 
	C93.886833,101.698280 93.853645,102.322113 93.820465,102.945953 
	C91.494553,107.191093 89.914818,112.175415 86.640335,115.480881 
	C83.115211,119.039352 83.147949,121.475372 86.003212,124.832314 
	C87.067001,126.083031 88.029305,127.420067 89.072037,129.035004 
	C88.757042,130.393433 88.407890,131.434631 87.947945,132.876678 
	C84.261024,128.396042 80.684914,123.514526 76.736954,118.125450 
	C88.007324,111.554604 92.367783,101.817703 91.637573,88.751938 
	C91.514420,87.304565 91.207413,86.636475 90.900414,85.968384 
	C90.169922,84.094398 89.439438,82.220413 88.765137,79.654663 
	C88.850510,78.714882 88.879700,78.466881 88.908890,78.218880 
	C89.435127,78.126915 89.961372,78.034950 90.888321,77.949829 
z"/>
<path fill="#C0C0C0" opacity="1.000000" stroke="none" 
	d="
M212.529236,80.999817 
	C212.418716,80.143333 212.550995,79.183174 212.895233,78.306236 
	C216.322083,69.576912 216.331131,69.583511 207.325027,66.921562 
	C206.704269,66.738083 206.108627,66.469711 205.277130,65.949173 
	C208.680649,66.725716 212.401215,67.574585 215.860687,69.039886 
	C216.586731,69.347420 216.879288,72.094398 216.448730,73.416801 
	C215.596695,76.033730 214.100357,78.440887 212.529236,80.999817 
z"/>
<path fill="#CFCFCF" opacity="1.000000" stroke="none" 
	d="
M125.277893,142.327759 
	C131.425095,140.021179 137.838867,137.988220 144.626587,135.978516 
	C139.587906,141.364120 132.738419,142.490479 125.277893,142.327759 
z"/>
<path fill="#C0C0C0" opacity="1.000000" stroke="none" 
	d="
M44.386353,141.994492 
	C44.199844,137.427200 44.419933,132.877197 44.687275,128.329987 
	C44.791222,126.562057 45.001797,124.800407 45.545525,122.947441 
	C45.972206,128.100449 46.091633,133.343170 46.003925,138.582413 
	C45.984680,139.732239 45.228592,140.869720 44.386353,141.994492 
z"/>
<path fill="#DDDDDD" opacity="1.000000" stroke="none" 
	d="
M157.424194,75.995499 
	C159.183197,78.404060 160.632797,80.847015 161.673309,83.700951 
	C160.727158,84.586754 160.190109,85.061577 159.653046,85.536407 
	C158.069839,83.286018 156.486618,81.035622 154.871796,78.438759 
	C155.598389,77.404831 156.356598,76.717361 157.424194,75.995499 
z"/>
<path fill="#C0C0C0" opacity="1.000000" stroke="none" 
	d="
M153.505783,132.941116 
	C155.427856,134.292542 156.814880,136.042374 158.624695,136.935196 
	C161.100937,138.156754 163.898544,138.726898 166.764359,139.881256 
	C162.227859,138.740860 157.475800,137.323868 152.781998,135.734726 
	C152.613632,135.677704 153.020462,133.921677 153.505783,132.941116 
z"/>
<path fill="#C0C0C0" opacity="1.000000" stroke="none" 
	d="
M181.727890,63.700890 
	C178.236435,64.941917 174.480026,65.926933 170.327728,66.856606 
	C173.775528,65.682465 177.619232,64.563667 181.727890,63.700890 
z"/>
<path fill="#CFCFCF" opacity="1.000000" stroke="none" 
	d="
M96.011833,135.382874 
	C99.523018,136.558823 103.056488,138.083679 106.773102,139.916046 
	C103.315529,138.726288 99.674828,137.229019 96.011833,135.382874 
z"/>
<path fill="#C0C0C0" opacity="1.000000" stroke="none" 
	d="
M200.011169,95.025543 
	C196.601501,94.691063 193.047379,94.052773 189.262238,93.109856 
	C192.643051,93.444061 196.254898,94.082893 200.011169,95.025543 
z"/>
<path fill="#C0C0C0" opacity="1.000000" stroke="none" 
	d="
M114.748833,63.740616 
	C111.573380,64.975906 108.147392,65.955536 104.328796,66.874207 
	C107.456886,65.703819 110.977592,64.594383 114.748833,63.740616 
z"/>
<path fill="#C0C0C0" opacity="1.000000" stroke="none" 
	d="
M170.005646,141.008759 
	C172.679260,141.015793 175.516373,141.316162 178.675781,141.815430 
	C176.055115,141.776917 173.112122,141.539505 170.005646,141.008759 
z"/>
<path fill="#C0C0C0" opacity="1.000000" stroke="none" 
	d="
M189.274109,142.288574 
	C191.801819,141.497498 194.598007,140.960938 197.776917,140.546219 
	C195.287292,141.293076 192.414932,141.918076 189.274109,142.288574 
z"/>
<path fill="#CFCFCF" opacity="1.000000" stroke="none" 
	d="
M60.356846,135.731354 
	C62.150284,137.459213 63.813984,139.550201 65.731186,141.863937 
	C61.791618,142.274124 61.639984,138.578369 60.356846,135.731354 
z"/>
<path fill="#CFCFCF" opacity="1.000000" stroke="none" 
	d="
M92.195862,142.246735 
	C91.004204,139.912704 90.004860,137.811279 89.005539,135.353607 
	C90.609238,136.914658 92.249001,138.805099 93.740356,140.806137 
	C93.846634,140.948746 92.864319,141.902664 92.195862,142.246735 
z"/>
<path fill="#C0C0C0" opacity="1.000000" stroke="none" 
	d="
M194.013382,84.053894 
	C196.919662,84.515549 199.996063,85.262085 203.288361,86.296326 
	C200.397354,85.835617 197.290421,85.087196 194.013382,84.053894 
z"/>
<path fill="#C0C0C0" opacity="1.000000" stroke="none" 
	d="
M203.001556,64.960190 
	C200.656921,64.940880 198.153122,64.631195 195.327423,64.139061 
	C197.617813,64.194344 200.230103,64.432083 203.001556,64.960190 
z"/>
<path fill="#CFCFCF" opacity="1.000000" stroke="none" 
	d="
M109.017715,140.999268 
	C111.052910,141.006668 113.224327,141.310791 115.696770,141.813568 
	C113.716507,141.773468 111.435226,141.534729 109.017715,140.999268 
z"/>
<path fill="#C0C0C0" opacity="1.000000" stroke="none" 
	d="
M69.014694,64.950592 
	C66.981125,64.938614 64.802505,64.635971 62.314705,64.145569 
	C64.293564,64.191849 66.581604,64.425880 69.014694,64.950592 
z"/>
<path fill="#C0C0C0" opacity="1.000000" stroke="none" 
	d="
M134.011093,65.031372 
	C131.977615,64.995750 129.800674,64.666092 127.314423,64.148689 
	C129.292618,64.219734 131.580124,64.478531 134.011093,65.031372 
z"/>
<path fill="#C0C0C0" opacity="1.000000" stroke="none" 
	d="
M216.559708,129.037720 
	C217.044220,126.868393 217.861725,124.656715 218.966522,122.242378 
	C218.466797,124.358269 217.679733,126.676804 216.559708,129.037720 
z"/>
<path fill="#C0C0C0" opacity="1.000000" stroke="none" 
	d="
M219.419647,110.778214 
	C218.199097,109.179520 217.231140,107.388809 216.269257,105.250778 
	C217.407639,106.797707 218.539948,108.691956 219.419647,110.778214 
z"/>
<path fill="#C0C0C0" opacity="1.000000" stroke="none" 
	d="
M102.031113,67.189079 
	C100.479485,68.478897 98.563957,69.667130 96.299347,70.862579 
	C97.855927,69.609032 99.761574,68.348259 102.031113,67.189079 
z"/>
<path fill="#C0C0C0" opacity="1.000000" stroke="none" 
	d="
M158.203384,128.086792 
	C157.553970,129.044266 156.904556,130.001724 155.961838,131.014221 
	C154.930725,130.756317 154.192932,130.443405 153.092575,129.949814 
	C153.154602,129.270294 153.579178,128.771454 154.728821,128.241776 
	C156.370392,128.169571 157.286880,128.128189 158.203384,128.086792 
z"/>
<path fill="#C0C0C0" opacity="1.000000" stroke="none" 
	d="
M200.231400,140.452179 
	C201.481308,139.525711 202.925385,138.843643 204.724976,138.196121 
	C203.528839,139.052643 201.977219,139.874619 200.231400,140.452179 
z"/>
<path fill="#C0C0C0" opacity="1.000000" stroke="none" 
	d="
M209.359085,87.981018 
	C209.680405,86.281036 210.370667,84.569382 211.376389,82.719246 
	C211.037247,84.376953 210.382629,86.173149 209.359085,87.981018 
z"/>
<path fill="#C0C0C0" opacity="1.000000" stroke="none" 
	d="
M207.030609,97.513344 
	C205.493698,97.380501 203.928818,96.921219 202.194061,96.153687 
	C203.683670,96.292595 205.343140,96.739754 207.030609,97.513344 
z"/>
<path fill="#C0C0C0" opacity="1.000000" stroke="none" 
	d="
M141.028687,67.522896 
	C139.491226,67.389458 137.927994,66.928291 136.194046,66.159332 
	C137.683182,66.299423 139.343063,66.747292 141.028687,67.522896 
z"/>
<path fill="#C0C0C0" opacity="1.000000" stroke="none" 
	d="
M76.035828,67.480583 
	C74.512466,67.311684 72.956261,66.820580 71.221680,66.025879 
	C72.696526,66.200974 74.349754,66.679680 76.035828,67.480583 
z"/>
<path fill="#C0C0C0" opacity="1.000000" stroke="none" 
	d="
M204.993896,87.401733 
	C206.079773,87.342171 207.189224,87.608475 208.645752,87.932388 
	C207.751282,90.073708 207.741287,90.073051 204.993896,87.401733 
z"/>
<path fill="#C0C0C0" opacity="1.000000" stroke="none" 
	d="
M186.038971,91.995651 
	C184.898560,92.032845 183.639771,91.806068 182.187943,91.306885 
	C183.303467,91.266884 184.612045,91.499290 186.038971,91.995651 
z"/>
<path fill="#C0C0C0" opacity="1.000000" stroke="none" 
	d="
M168.030548,67.181793 
	C167.126450,68.138573 165.869278,68.994164 164.274841,69.840118 
	C165.184189,68.913857 166.430832,67.997231 168.030548,67.181793 
z"/>
<path fill="#C0C0C0" opacity="1.000000" stroke="none" 
	d="
M180.038116,89.575958 
	C179.811829,88.386230 179.610977,86.793961 179.739075,85.184845 
	C180.066544,86.503136 180.065048,87.838280 180.038116,89.575958 
z"/>
<path fill="#C0C0C0" opacity="1.000000" stroke="none" 
	d="
M219.960510,119.023651 
	C219.589218,117.989594 219.475037,116.824631 219.538544,115.250046 
	C219.883362,116.191208 220.050491,117.541977 219.960510,119.023651 
z"/>
<path fill="#CFCFCF" opacity="1.000000" stroke="none" 
	d="
M57.176914,130.937881 
	C58.244930,131.785843 59.222618,133.008377 60.201302,134.575287 
	C59.163734,133.717270 58.125160,132.514847 57.176914,130.937881 
z"/>
<path fill="#C0C0C0" opacity="1.000000" stroke="none" 
	d="
M84.873566,73.863647 
	C83.832123,73.449097 82.816376,72.665100 81.719452,71.563843 
	C82.725273,71.995789 83.812263,72.744995 84.873566,73.863647 
z"/>
<path fill="#C0C0C0" opacity="1.000000" stroke="none" 
	d="
M215.835724,103.938339 
	C214.804581,103.495575 213.821838,102.680580 212.744583,101.554207 
	C213.728073,102.017258 214.806091,102.791679 215.835724,103.938339 
z"/>
<path fill="#C0C0C0" opacity="1.000000" stroke="none" 
	d="
M153.915436,76.825890 
	C152.905273,76.388542 151.928253,75.593559 150.886917,74.483566 
	C151.864594,74.935112 152.906570,75.701683 153.915436,76.825890 
z"/>
<path fill="#CFCFCF" opacity="1.000000" stroke="none" 
	d="
M54.350449,126.723740 
	C55.280994,127.371712 56.077671,128.373672 56.888340,129.702179 
	C56.007084,129.045059 55.111835,128.061401 54.350449,126.723740 
z"/>
<path fill="#C0C0C0" opacity="1.000000" stroke="none" 
	d="
M150.854980,73.829605 
	C149.959503,73.637970 149.084976,73.097038 148.152161,72.244507 
	C149.021225,72.448708 149.948578,72.964500 150.854980,73.829605 
z"/>
<path fill="#C0C0C0" opacity="1.000000" stroke="none" 
	d="
M148.027924,71.560608 
	C147.319244,71.554268 146.577957,71.202980 145.748199,70.543015 
	C146.438248,70.561462 147.216782,70.888565 148.027924,71.560608 
z"/>
<path fill="#C0C0C0" opacity="1.000000" stroke="none" 
	d="
M94.998520,71.165092 
	C94.772545,71.830513 94.202011,72.418900 93.313187,72.997604 
	C93.547913,72.354637 94.100929,71.721352 94.998520,71.165092 
z"/>
<path fill="#C0C0C0" opacity="1.000000" stroke="none" 
	d="
M144.961334,69.587242 
	C144.263321,69.638069 143.504623,69.332321 142.607452,68.733688 
	C143.279526,68.704086 144.090103,68.967377 144.961334,69.587242 
z"/>
<path fill="#C0C0C0" opacity="1.000000" stroke="none" 
	d="
M79.939133,69.643738 
	C79.234131,69.697197 78.471191,69.389061 77.570564,68.789566 
	C78.248978,68.759521 79.065086,69.020828 79.939133,69.643738 
z"/>
<path fill="#C0C0C0" opacity="1.000000" stroke="none" 
	d="
M206.823135,137.684219 
	C207.118546,137.035049 207.753510,136.514404 208.706085,136.019012 
	C208.403366,136.633759 207.783020,137.223251 206.823135,137.684219 
z"/>
<path fill="#C0C0C0" opacity="1.000000" stroke="none" 
	d="
M18.347231,141.251221 
	C18.872946,141.289490 19.207003,141.487579 19.765875,141.877380 
	C19.378984,141.849747 18.767279,141.630402 18.347231,141.251221 
z"/>
<path fill="#C0C0C0" opacity="1.000000" stroke="none" 
	d="
M211.078583,134.868866 
	C211.268478,134.206467 211.804214,133.593765 212.654938,132.958771 
	C212.454758,133.597183 211.939606,134.257858 211.078583,134.868866 
z"/>
<path fill="#CFCFCF" opacity="1.000000" stroke="none" 
	d="
M93.045349,133.318634 
	C93.746658,133.341949 94.477097,133.731903 95.336227,134.418777 
	C94.668106,134.372223 93.871284,134.028748 93.045349,133.318634 
z"/>
<path fill="#C0C0C0" opacity="1.000000" stroke="none" 
	d="
M214.245697,131.935333 
	C214.314178,131.240280 214.737228,130.535797 215.469635,129.752075 
	C215.386108,130.423843 214.993195,131.174866 214.245697,131.935333 
z"/>
<path fill="#C0C0C0" opacity="1.000000" stroke="none" 
	d="
M210.953217,99.614029 
	C210.249237,99.666679 209.487640,99.359688 208.591522,98.757523 
	C209.269852,98.726357 210.082718,98.990372 210.953217,99.614029 
z"/>
<path fill="#C0C0C0" opacity="1.000000" stroke="none" 
	d="
M88.776291,77.948074 
	C88.879700,78.466881 88.850510,78.714882 88.725800,79.325691 
	C88.118332,78.995529 87.606400,78.302567 87.112488,77.279144 
	C87.634903,77.191536 88.139290,77.434395 88.776291,77.948074 
z"/>
<path fill="#C0C0C0" opacity="1.000000" stroke="none" 
	d="
M181.044357,84.868195 
	C181.339462,84.348824 181.980972,83.907013 182.826950,83.622467 
	C182.484543,84.168411 181.937637,84.557083 181.044357,84.868195 
z"/>
<path fill="#EBEBEB" opacity="1.000000" stroke="none" 
	d="
M53.695389,102.669525 
	C44.148945,102.490417 45.037636,104.333977 44.956715,94.566757 
	C44.955338,94.400482 44.935127,94.230942 44.959709,94.068382 
	C45.455063,90.792511 45.716606,84.760002 46.494331,84.692566 
	C51.311779,84.274841 56.542454,84.389816 61.009693,86.031723 
	C63.102833,86.801033 64.932632,91.433517 64.790489,94.208054 
	C64.661400,96.727585 62.022297,99.465698 59.858337,101.401688 
	C58.589725,102.536644 56.086700,102.291824 53.695389,102.669525 
z"/>
<path fill="#C0C0C0" opacity="1.000000" stroke="none" 
	d="
M90.787460,86.197830 
	C91.207413,86.636475 91.514420,87.304565 91.716583,88.356964 
	C91.299324,87.969948 90.986916,87.198616 90.787460,86.197830 
z"/>
<path fill="#F6F6F6" opacity="1.000000" stroke="none" 
	d="
M129.874084,119.109306 
	C121.911942,122.936371 114.428268,121.877228 109.408516,116.456444 
	C103.929604,110.539810 102.844429,99.947769 106.968773,92.642914 
	C110.662704,86.100380 117.540466,83.171959 125.281021,84.845879 
	C137.653595,87.521492 142.328308,106.082390 133.170822,116.270042 
	C132.289948,117.250008 131.192749,118.035500 129.874084,119.109306 
z"/>
<path fill="#EFEFEF" opacity="1.000000" stroke="none" 
	d="
M158.474030,127.890594 
	C157.286880,128.128189 156.370392,128.169571 154.993042,128.260437 
	C160.331650,120.101402 164.021225,111.168900 162.780746,100.935867 
	C162.180267,95.982323 160.700027,91.135437 159.635574,85.888329 
	C160.190109,85.061577 160.727158,84.586754 161.632538,84.055916 
	C162.737747,85.695312 163.474625,87.390724 164.056885,89.753235 
	C164.377853,91.028282 164.853455,91.636230 165.329041,92.244179 
	C165.700226,93.881187 166.071411,95.518196 166.132278,97.591370 
	C166.111755,98.732605 166.401550,99.437683 166.691345,100.142761 
	C167.002853,108.925125 166.989624,108.977493 175.896027,111.227486 
	C179.907913,112.240990 184.135300,112.592262 187.977203,114.018837 
	C190.416595,114.924622 192.326492,117.256325 194.473846,118.948578 
	C192.047882,120.178078 189.544434,122.577019 187.210159,122.422356 
	C179.571762,121.916267 171.994965,120.480728 163.871643,119.328400 
	C162.525970,121.524223 160.635315,124.609306 158.474030,127.890594 
z"/>
<path fill="#C0C0C0" opacity="1.000000" stroke="none" 
	d="
M94.043320,102.765945 
	C93.853645,102.322113 93.886833,101.698280 94.156677,101.015442 
	C94.350937,101.499603 94.308548,102.042778 94.043320,102.765945 
z"/>
<path fill="#C0C0C0" opacity="1.000000" stroke="none" 
	d="
M94.525421,85.770180 
	C94.105209,85.474899 93.772621,84.908951 93.636276,84.199310 
	C94.092697,84.536911 94.352867,85.018211 94.525421,85.770180 
z"/>
<path fill="#9B9B9B" opacity="1.000000" stroke="none" 
	d="
M166.840561,99.882271 
	C166.401550,99.437683 166.111755,98.732605 166.165497,98.011734 
	C166.669281,98.537872 166.829529,99.079826 166.840561,99.882271 
z"/>
<path fill="#9B9B9B" opacity="1.000000" stroke="none" 
	d="
M165.478394,91.963089 
	C164.853455,91.636230 164.377853,91.028282 164.040985,90.116737 
	C164.662369,90.436096 165.145050,91.059044 165.478394,91.963089 
z"/>
</svg>